<?xml version="1.0" standalone="no"?>
<!DOCTYPE svg PUBLIC "-//W3C//DTD SVG 20010904//EN"
 "http://www.w3.org/TR/2001/REC-SVG-20010904/DTD/svg10.dtd">
<svg version="1.0" xmlns="http://www.w3.org/2000/svg"
 width="225.000000pt" height="225.000000pt" viewBox="0 0 225.000000 225.000000"
 preserveAspectRatio="xMidYMid meet">
<metadata>
Created by potrace 1.14, written by Peter Selinger 2001-2017
</metadata>
<g transform="translate(0.000000,225.000000) scale(0.100000,-0.100000)"
fill="#000000" stroke="none">
<path d="M951 1620 c0 -319 -2 -584 -5 -589 -7 -10 36 -2 44 9 3 3 43 35 90
70 47 35 87 68 88 72 2 4 10 8 18 8 8 0 14 4 14 9 0 5 8 12 18 15 9 3 31 19
48 35 l31 29 -1 459 -1 458 -172 3 -172 2 0 -580z"/>
<path d="M695 1749 c-27 -16 -57 -32 -65 -36 -8 -3 -17 -9 -20 -12 -3 -3 -27
-24 -55 -46 -46 -36 -82 -71 -139 -135 -29 -33 -86 -123 -85 -134 0 -5 -3 -12
-8 -15 -18 -13 -64 -134 -83 -217 -21 -96 -26 -293 -9 -360 6 -21 12 -48 13
-59 2 -11 6 -28 10 -37 4 -9 4 -22 0 -29 -4 -8 -3 -9 4 -5 7 4 12 0 12 -10 0
-24 80 -181 106 -210 12 -12 20 -25 18 -27 -3 -2 11 -18 31 -36 20 -17 32 -31
28 -31 -11 0 72 -75 132 -120 66 -49 184 -112 196 -105 5 4 9 2 9 -2 0 -9 84
-39 135 -48 17 -3 46 -9 65 -12 71 -12 312 -5 327 10 3 4 17 7 29 7 13 0 26 5
29 10 4 6 10 8 15 5 5 -3 20 0 34 6 25 12 25 12 6 29 -11 9 -17 20 -13 23 3 4
-2 9 -11 13 -9 3 -16 10 -16 15 0 5 -36 56 -81 113 -70 91 -84 104 -102 97
-28 -9 -128 -7 -187 3 -107 20 -218 77 -298 155 -46 45 -122 155 -122 178 0 7
-5 13 -10 13 -6 0 -10 6 -9 13 1 6 0 19 -3 27 -3 8 -10 30 -16 47 -17 55 -8
239 16 306 29 80 84 167 140 224 l47 46 1 189 c0 127 -3 188 -10 187 -6 0 -33
-14 -61 -30z"/>
<path d="M1484 1745 c1 -19 -1 -35 -6 -35 -4 0 -5 -6 -2 -13 8 -21 10 -187 2
-187 -4 0 -3 -12 1 -27 4 -16 6 -40 5 -55 -2 -20 8 -36 42 -68 24 -22 44 -43
44 -47 0 -4 9 -16 19 -27 26 -28 75 -130 90 -186 27 -108 19 -260 -20 -348
-32 -72 -39 -85 -54 -106 -14 -19 -15 -18 -37 10 -13 16 -50 63 -83 105 -33
42 -69 88 -80 103 -11 15 -44 58 -74 96 -53 67 -54 68 -77 53 -29 -19 -29 -21
-1 -55 43 -51 52 -63 77 -98 14 -19 30 -42 37 -50 6 -8 32 -41 57 -72 25 -31
46 -61 46 -67 0 -6 5 -11 10 -11 6 0 14 -8 17 -17 4 -9 14 -24 22 -33 26 -28
51 -60 51 -66 0 -3 6 -11 13 -18 6 -7 23 -28 37 -46 14 -18 30 -38 35 -44 6
-6 21 -27 35 -46 13 -19 30 -42 37 -50 8 -8 41 -51 74 -95 33 -44 66 -87 73
-95 29 -36 27 -37 -109 -37 -79 -1 -135 3 -135 9 0 5 -13 23 -30 41 -16 18
-30 37 -30 44 0 6 -4 13 -9 15 -12 4 -91 105 -91 117 0 5 -4 11 -9 13 -5 2
-32 35 -62 73 -29 39 -56 72 -61 73 -4 2 -8 8 -8 13 0 5 -7 17 -16 27 -8 9
-27 33 -42 53 -58 78 -77 103 -87 113 -6 6 -35 44 -64 83 -30 40 -59 73 -65
73 -6 0 -20 -7 -30 -15 -19 -14 -18 -16 18 -69 21 -30 45 -64 54 -75 46 -54
52 -62 52 -71 0 -6 3 -10 8 -10 4 0 23 -23 42 -50 19 -27 38 -50 43 -50 4 0 7
-6 7 -12 0 -7 14 -27 30 -45 17 -18 30 -36 30 -42 0 -5 4 -11 8 -13 4 -1 23
-24 42 -50 18 -27 38 -48 43 -48 6 0 8 -3 4 -6 -5 -6 2 -15 55 -77 15 -18 28
-35 28 -38 0 -3 8 -15 18 -27 9 -11 26 -33 37 -48 33 -47 56 -66 71 -60 8 3
14 0 14 -6 0 -7 4 -7 13 -1 6 5 96 8 199 8 133 -1 185 1 180 9 -5 6 -28 36
-53 67 -24 30 -53 68 -64 83 -11 15 -39 53 -62 83 -24 30 -43 56 -43 57 0 1
14 18 31 37 30 33 120 179 117 189 0 3 8 23 19 45 18 35 38 99 33 107 -1 2 4
17 11 33 12 31 23 291 12 308 -3 5 -7 26 -8 46 -2 20 -13 65 -24 101 -12 36
-21 68 -21 72 0 4 -16 34 -35 67 -19 33 -35 62 -35 66 0 3 -6 13 -12 20 -28
31 -39 45 -34 45 6 0 -66 80 -109 123 -16 16 -50 43 -75 60 -25 17 -46 34 -48
39 -2 4 -10 8 -17 8 -7 0 -15 3 -17 8 -3 7 -90 52 -101 52 -3 0 -5 -16 -3 -35z"/>
<path d="M1136 921 c-10 -10 -13 -21 -8 -22 5 -2 32 -34 60 -71 28 -38 56 -74
62 -80 6 -7 31 -40 56 -73 25 -33 51 -63 57 -67 7 -4 8 -8 2 -8 -5 0 -3 -6 5
-13 9 -7 27 -28 40 -47 30 -42 49 -67 73 -92 9 -10 17 -20 17 -22 0 -8 101
-141 117 -153 8 -6 15 -15 15 -20 1 -4 10 -20 21 -36 15 -20 29 -27 54 -27 18
0 33 2 33 5 0 3 -35 51 -77 107 -43 55 -82 108 -88 117 -5 9 -12 18 -15 21 -3
3 -28 34 -55 70 -28 36 -55 72 -62 80 -6 8 -32 41 -57 72 -25 31 -46 59 -46
63 0 3 -10 16 -22 28 -13 12 -27 29 -33 38 -29 48 -111 148 -121 149 -6 0 -19
-9 -28 -19z"/>
</g>
</svg>
